<?xml version="1.0" encoding="utf-8"?>
<!-- Generator: Adobe Illustrator 21.0.0, SVG Export Plug-In . SVG Version: 6.00 Build 0)  -->
<svg version="1.1" id="Layer_1" xmlns="http://www.w3.org/2000/svg" xmlns:xlink="http://www.w3.org/1999/xlink" x="0px" y="0px"
	 viewBox="0 0 34.2 35" style="enable-background:new 0 0 34.2 35;" xml:space="preserve">
<style type="text/css">
	.st0{fill:#FF0000;}
	.st1{fill:#FFFFFF;}
</style>
<g>
	<path d="M25,18.8L24.2,25c-0.2,1.3-1.5,2.3-3,2.3h-9.8c-1.5,0-2.8-1-3-2.2l-1.1-7l-0.1-0.7L7,15.2h10.5c-0.3-0.4-0.6-0.9-0.9-1.3
		H6.8L5.6,5.5l-0.2,0V5.4H0v1.3h4.4l1,7.2h0L6,18l0,0.2l0,0l0,0l1,7c0.2,1.3,1.2,2.5,2.5,3c0,0,0,0,0,0c-1.6,0.3-2.7,1.7-2.7,3.3
		c0,1.9,1.5,3.4,3.4,3.4c1.9,0,3.4-1.5,3.4-3.4c0-1.3-0.7-2.4-1.8-3h8.3c-0.9,0.6-1.4,1.7-1.4,3c0,1.9,1.3,3.4,2.8,3.4
		c1.5,0,2.8-1.5,2.8-3.4c0-1.4-0.7-2.7-1.8-3.2c0,0,0,0,0,0c1.6-0.5,2.8-1.7,3-3.2l0.9-6.5C26,18.7,25.5,18.8,25,18.8z M10.2,33.6
		c-1.1,0-2.1-0.9-2.1-2.1c0-1.1,0.9-2.1,2.1-2.1c1.1,0,2.1,0.9,2.1,2.1C12.3,32.7,11.4,33.6,10.2,33.6z M21.6,33.7
		c-0.8,0-1.5-1-1.5-2.1c0-1.1,0.7-2.1,1.5-2.1c0.8,0,1.5,1,1.5,2.1C23,32.7,22.4,33.7,21.6,33.7z"/>
	<path class="st0" d="M34.2,9.4c0,4.6-3.4,8.5-7.8,9.2c-0.4,0.1-0.9,0.1-1.4,0.1h-0.2c-3,0-5.6-1.4-7.4-3.6
		c-0.3-0.4-0.6-0.9-0.9-1.3c-0.7-1.3-1.1-2.8-1.1-4.5c0-5.2,4.2-9.4,9.4-9.4C30,0,34.2,4.2,34.2,9.4z"/>
</g>
<g>
	<path class="st1" d="M23.1,12.1c0.3,0.2,1,0.5,1.7,0.5c1.4,0,1.8-0.9,1.8-1.5c0-1.1-1-1.6-2-1.6h-0.6V8.7h0.6
		c0.8,0,1.7-0.4,1.7-1.3c0-0.6-0.4-1.2-1.4-1.2c-0.6,0-1.2,0.3-1.6,0.5L23.1,6c0.4-0.3,1.2-0.6,2-0.6c1.5,0,2.2,0.9,2.2,1.9
		c0,0.8-0.5,1.5-1.4,1.8v0c1,0.2,1.7,0.9,1.7,2c0,1.2-1,2.3-2.8,2.3c-0.9,0-1.6-0.3-2-0.5L23.1,12.1z"/>
</g>
</svg>
