<?xml version="1.0" encoding="utf-8"?>
<!-- Generator: Adobe Illustrator 21.0.0, SVG Export Plug-In . SVG Version: 6.00 Build 0)  -->
<svg version="1.1" id="Layer_1" xmlns="http://www.w3.org/2000/svg" xmlns:xlink="http://www.w3.org/1999/xlink" x="0px" y="0px"
	 viewBox="0 0 16 29.8" style="enable-background:new 0 0 16 29.8;" xml:space="preserve">
<style type="text/css">
	.st0{fill:#FFFFFF;}
</style>
<path class="st0" d="M16,3.7c0-0.8,0-1.4,0-1.8c0-0.4,0-0.7-0.2-1.1c-0.1-0.3-0.4-0.5-0.7-0.6c-0.4-0.1-0.8-0.1-1.3-0.2
	c-0.5,0-1.2,0-2.1,0l0,0c-0.2,0-0.3,0-0.5,0c-0.2,0-0.5,0-0.7,0C9,0.2,7.6,0.8,6.5,1.8c-1.1,1-1.8,2.4-2,4C4.4,6.7,4.4,7.5,4.4,8.3
	c0,0.6,0,1.3,0,1.9h0l0,0.1l0,0.1l-0.1,0l-0.1,0v0c-0.3,0-0.6,0-0.9,0c-0.6,0-1.2,0-1.8,0l0,0c-0.1,0-0.2,0-0.3,0
	c-0.2,0-0.4,0-0.7,0.2c-0.1,0.1-0.3,0.2-0.4,0.4c-0.1,0.2-0.1,0.3-0.1,0.5c0,0.8-0.1,1.6-0.1,2.4c0,0.7,0.1,1.5,0.3,2.2
	c0.1,0.2,0.2,0.3,0.3,0.4c0.2,0.2,0.4,0.2,0.6,0.3c0.2,0,0.4,0,0.6,0c0.6,0,1.4-0.1,1.9-0.1l0.2,0l0,0h0.2h0l0,0l0.1,0l0.1,0
	c0,0,0,0.1,0,0.2l0,0.1c0,0.8,0,1.6,0,2.3c0,0.8,0,1.7,0,2.5h0v0.7c0,1,0,2.1,0,3.1c0,0.8,0,1.6,0,2.4h0l0,0c0,0.3,0,0.7,0.3,1.1
	c0.1,0.2,0.3,0.3,0.5,0.4c0.2,0.1,0.4,0.1,0.6,0.1l0.1,0h0c0.5,0,1,0,1.6,0c0.5,0,1,0,1.5,0h0l0.2,0c0.2,0,0.5,0,0.7-0.1
	c0.4-0.1,0.7-0.4,0.8-0.7c0.1-0.3,0.2-0.6,0.2-1v-0.1c0-1.2,0-2.5,0-3.7c0-1.5,0-2.9,0-4.4c0-0.9,0-1.7,0-2.6v0v0v0v0
	c0-0.2,0-0.3,0-0.4l0,0l0.1,0c0.1,0,0.2,0,0.3,0c0.8,0,1.5,0,2-0.1c0.4,0,0.8-0.1,1.1-0.3c0.2-0.1,0.5-0.4,0.6-0.6
	c0.2-0.4,0.3-0.8,0.4-1.2c0.1-0.5,0.1-1,0.2-1.7c0-0.4,0-0.6,0.1-0.7l0,0c0-0.2,0.1-0.3,0.1-0.5c0-0.2,0-0.4-0.1-0.6
	c-0.1-0.3-0.4-0.5-0.7-0.6c-0.2-0.1-0.5-0.1-0.7-0.1l-0.1,0c-0.2,0-0.4,0-0.6,0c-0.6,0-1.2,0-1.8,0c-0.2,0-0.5,0-0.7,0v0l-0.1,0
	l-0.1,0l0,0l0-0.1c0-0.3,0-0.5,0-0.8c0-0.4,0-0.8,0-1.2c0-0.2,0-0.4,0-0.6c0-0.4,0.1-0.7,0.1-0.9c0.1-0.3,0.2-0.4,0.4-0.6
	c0.2-0.1,0.6-0.2,1.1-0.2c0.3,0,0.6,0,1,0c0.3,0,0.6,0,1,0h0l0.1,0c0.3,0,0.7,0,1-0.3c0.2-0.1,0.3-0.3,0.3-0.5C16,5.1,16,4.9,16,4.7
	l0-0.1C16,4.3,16,4,16,3.7z M14.6,4.7L14.6,4.7c-0.3,0-0.7,0-1,0s-0.7,0-1,0c-0.5,0-0.9,0.1-1.2,0.2c-0.6,0.2-1.1,0.5-1.3,1
	C9.7,6.4,9.6,7,9.6,7.7c0,0.2,0,0.4,0,0.6c0,0.4,0,0.8,0,1.2c0,0.2,0,0.5,0,0.7l0,0.1c0,0.2,0,0.4,0.1,0.5c0.1,0.3,0.3,0.6,0.6,0.7
	c0.3,0.1,0.5,0.2,0.8,0.2l0.1,0h0h0c0.2,0,0.5,0,0.7,0c0.6,0,1.2,0,1.8,0c0.2,0,0.4,0,0.7,0l0.1,0l0.1,0l0,0l0,0
	c-0.1,0.4-0.1,0.7-0.1,0.9c-0.1,0.8-0.2,1.4-0.3,1.8c-0.1,0.3-0.1,0.5-0.2,0.6l-0.2,0.1c-0.1,0.1-0.4,0.1-0.8,0.2
	c-0.4,0-0.9,0-1.6,0c-0.3,0-0.5,0-0.7,0.1c-0.4,0.1-0.7,0.4-0.9,0.7c-0.1,0.3-0.2,0.6-0.2,1l0,0.1l0,0c0,0.8,0,1.7,0,2.5
	c0,1.5,0,2.9,0,4.4c0,1.2,0,2.5,0,3.7v0c0,0.2,0,0.3,0,0.4l0,0.1c0,0-0.1,0-0.2,0l-0.1,0h0c-0.5,0-1.1-0.1-1.6-0.1
	c-0.5,0-1.1,0-1.6,0l0,0l-0.1,0l-0.1,0l0-0.2v0l0,0v0c0-0.8,0-1.6,0-2.4c0-0.8,0-1.6,0-2.4h0v-0.7c0-1.1,0-2.1,0-3.2
	c0-0.8,0-1.5,0-2.3l0-0.1c0-0.4-0.1-0.8-0.3-1.1c-0.1-0.2-0.3-0.3-0.5-0.4c-0.2-0.1-0.4-0.1-0.6-0.1l-0.2,0H3.9v0l-0.3,0
	c-0.7,0-1.4,0.1-1.9,0.1c-0.1,0-0.2,0-0.2,0c-0.1-0.5-0.2-1-0.2-1.6c0-0.7,0.1-1.4,0.1-2.2c0,0,0.1,0,0.1,0v0l0,0h0
	c0.6,0,1.2,0,1.7,0c0.3,0,0.6,0,0.8,0l0,0h0.1c0.2,0,0.4,0,0.6-0.1c0.3-0.1,0.6-0.3,0.7-0.6c0.1-0.3,0.2-0.6,0.2-0.8l0-0.1v0
	c0-0.6,0-1.2,0-1.9c0-0.8,0-1.5,0.1-2.2c0.2-1.4,0.8-2.5,1.6-3.2c0.8-0.8,2-1.3,3.3-1.4c0.2,0,0.4,0,0.6,0c0.1,0,0.3,0,0.4,0h0
	c0.8,0,1.5,0,1.9,0c0.4,0,0.6,0,0.8,0c0.1,0,0.1,0,0.2,0c0,0.1,0,0.2,0,0.4c0,0.4,0,1,0,1.8C14.7,4,14.7,4.3,14.6,4.7L14.6,4.7
	L14.6,4.7L14.6,4.7z"/>
</svg>
