<?xml version="1.0" encoding="utf-8"?>
<!-- Generator: Adobe Illustrator 21.0.0, SVG Export Plug-In . SVG Version: 6.00 Build 0)  -->
<svg version="1.1" id="Layer_1" xmlns="http://www.w3.org/2000/svg" xmlns:xlink="http://www.w3.org/1999/xlink" x="0px" y="0px"
	 viewBox="0 0 30 30" style="enable-background:new 0 0 30 30;" xml:space="preserve">
<style type="text/css">
	.st0{fill:#FFFFFF;}
</style>
<g>
	<path class="st0" d="M22.6,0H7.4C3.3,0,0,3.3,0,7.4v15.2C0,26.7,3.3,30,7.4,30h15.2c4.1,0,7.4-3.3,7.4-7.4V7.4
		C30,3.3,26.7,0,22.6,0z M28.6,22.6c0,1.7-0.7,3.2-1.8,4.3c-1.1,1.1-2.6,1.8-4.3,1.8H7.4c-1.7,0-3.2-0.7-4.3-1.8
		c-1.1-1.1-1.8-2.6-1.8-4.3V7.4c0-1.7,0.7-3.2,1.8-4.3C4.2,2,5.7,1.4,7.4,1.4h15.2c1.7,0,3.2,0.7,4.3,1.8c1.1,1.1,1.8,2.6,1.8,4.3
		V22.6z"/>
	<path class="st0" d="M15,6.1c-4.9,0-8.9,4-8.9,8.9c0,4.9,4,8.9,8.9,8.9c4.9,0,8.9-4,8.9-8.9C23.9,10.1,19.9,6.1,15,6.1z M20.3,20.3
		c-1.4,1.4-3.2,2.2-5.3,2.2c-2.1,0-3.9-0.8-5.3-2.2c-1.4-1.4-2.2-3.2-2.2-5.3c0-2.1,0.8-3.9,2.2-5.3c1.4-1.4,3.2-2.2,5.3-2.2
		s3.9,0.8,5.3,2.2c1.4,1.4,2.2,3.2,2.2,5.3C22.5,17.1,21.7,18.9,20.3,20.3z"/>
	<ellipse transform="matrix(0.7071 -0.7071 0.7071 0.7071 3.3244 18.9409)" class="st0" cx="24.5" cy="5.5" rx="1.9" ry="1.9"/>
</g>
</svg>
