<?xml version="1.0" encoding="utf-8"?>
<!-- Generator: Adobe Illustrator 21.0.0, SVG Export Plug-In . SVG Version: 6.00 Build 0)  -->
<svg version="1.1" id="Layer_1" xmlns="http://www.w3.org/2000/svg" xmlns:xlink="http://www.w3.org/1999/xlink" x="0px" y="0px"
	 viewBox="0 0 7.8 13" style="enable-background:new 0 0 7.8 13;" xml:space="preserve">
<style type="text/css">
	.st0{fill:#FFFFFF;}
</style>
<g>
	<path class="st0" d="M3.7,11.3l0.2,0.4l0.2-0.4c0,0,0.9-1.3,1.8-2.9C6.4,7.6,6.9,6.8,7.2,6c0.3-0.8,0.6-1.5,0.6-2.1
		C7.8,1.8,6.1,0,3.9,0C1.8,0,0,1.8,0,3.9C0,4.5,0.2,5.2,0.6,6C1.6,8.4,3.7,11.3,3.7,11.3z M1.6,1.6c0.6-0.6,1.4-1,2.3-1
		c0.9,0,1.7,0.4,2.3,1c0.6,0.6,1,1.4,1,2.3C7.2,4.3,7,5,6.7,5.8C6.2,6.9,5.4,8.2,4.8,9.2C4.5,9.7,4.2,10.2,4,10.5
		c0,0-0.1,0.1-0.1,0.1C3.5,10,2.7,8.8,2,7.5C1.6,6.8,1.3,6.1,1,5.5C0.8,4.9,0.6,4.3,0.6,3.9C0.6,3,1,2.2,1.6,1.6z"/>
	<polygon class="st0" points="5.6,10.1 5.6,10.1 5.6,10.1 	"/>
	<path class="st0" d="M6.9,9.9C6.6,9.8,6.2,9.6,5.8,9.5l-0.1,0.6c0.5,0.1,1,0.3,1.2,0.5c0.1,0.1,0.2,0.2,0.3,0.3
		c0.1,0.1,0.1,0.2,0.1,0.3c0,0.1-0.1,0.2-0.2,0.4c-0.2,0.2-0.6,0.4-1.2,0.6c-0.5,0.2-1.2,0.3-1.9,0.3c-1,0-1.8-0.2-2.4-0.4
		c-0.3-0.1-0.5-0.3-0.7-0.4c-0.1-0.1-0.2-0.3-0.2-0.4c0-0.1,0-0.2,0.1-0.3c0.1-0.1,0.3-0.3,0.5-0.4c0.3-0.1,0.6-0.3,1-0.4L2.1,9.5
		C1.5,9.6,1,9.9,0.6,10.1c-0.2,0.1-0.3,0.3-0.5,0.5C0.1,10.7,0,10.9,0,11.2c0,0.3,0.2,0.6,0.4,0.8c0.3,0.3,0.8,0.6,1.4,0.8
		C2.4,12.9,3.1,13,3.9,13c1,0,2-0.2,2.7-0.5c0.4-0.2,0.6-0.3,0.9-0.6c0.2-0.2,0.4-0.5,0.4-0.8c0-0.2-0.1-0.4-0.2-0.6
		C7.5,10.3,7.2,10.1,6.9,9.9z"/>
	<path class="st0" d="M3.9,5.5c1,0,1.8-0.8,1.8-1.8c0-1-0.8-1.8-1.8-1.8c-1,0-1.8,0.8-1.8,1.8C2.1,4.7,2.9,5.5,3.9,5.5z M3.9,2.4
		c0.7,0,1.3,0.6,1.3,1.3c0,0.7-0.6,1.3-1.3,1.3c-0.7,0-1.3-0.6-1.3-1.3C2.7,3,3.2,2.4,3.9,2.4z"/>
</g>
</svg>
