<?xml version="1.0" encoding="utf-8"?>
<!-- Generator: Adobe Illustrator 21.0.0, SVG Export Plug-In . SVG Version: 6.00 Build 0)  -->
<svg version="1.1" id="Layer_1" xmlns="http://www.w3.org/2000/svg" xmlns:xlink="http://www.w3.org/1999/xlink" x="0px" y="0px"
	 viewBox="0 0 70 90.2" style="enable-background:new 0 0 70 90.2;" xml:space="preserve">
<style type="text/css">
	.st0{fill:#FFFFFF;}
</style>
<g>
	<g>
		<path class="st0" d="M9.1,84.8v3.8c0,1-0.5,1.5-1.5,1.5H1.5c-1,0-1.5-0.5-1.5-1.5v-8.4c0-1,0.5-1.5,1.5-1.5h7.6V81H2.3v6.8h4.6
			v-2.3h-3l0.8-2.3h3C8.6,83.3,9.1,83.8,9.1,84.8z"/>
		<path class="st0" d="M28.9,81v9.1h-2.3V81h-3v9.1h-2.3v-9.9c0-1,0.5-1.5,1.5-1.5h9.9c1,0,1.5,0.5,1.5,1.5v9.9h-2.3l0-9.1H28.9z"/>
		<path class="st0" d="M49.4,81h-6.1v2.3h5.3c1,0,1.5,0.5,1.5,1.5v3.8c0,1-0.5,1.5-1.5,1.5h-7.6v-2.3l6.8,0v-2.3h-5.3
			c-1,0-1.5-0.5-1.5-1.5v-3.8c0-1,0.5-1.5,1.5-1.5h7.6L49.4,81z"/>
		<path class="st0" d="M54,85.6v2.3h5.3v2.3h-6.1c-1,0-1.5-0.5-1.5-1.5v-8.4c0-1,0.5-1.5,1.5-1.5h6.1V81H54v2.3h4.6l-0.8,2.3H54z"/>
		<path class="st0" d="M60.8,90.2v-9.9c0-1,0.5-1.5,1.5-1.5h6.1c1,0,1.5,0.5,1.5,1.5v9.9h-2.3l0-9.1h-4.6v9.1H60.8z"/>
		<path class="st0" d="M18.2,78.8h-6.1c-1,0-1.5,0.5-1.5,1.5v8.4c0,1,0.5,1.5,1.5,1.5h6.1c1,0,1.5-0.5,1.5-1.5v-8.4
			C19.8,79.3,19.3,78.8,18.2,78.8z M17.5,87.9h-4.6v-6.8h4.6V87.9z"/>
		<polygon class="st0" points="20.6,73.4 19.4,72.2 16.4,75.2 17.6,75.2 		"/>
		<polygon class="st0" points="15.2,76.7 17,77.8 18.2,77.8 16.4,76 15.2,74.8 14,76 12.2,77.8 13.4,77.8 		"/>
	</g>
	<path class="st0" d="M26.5,52.7c0.4-0.2,0.8-0.4,1.2-0.6c-0.1-0.1-0.1-0.1-0.2-0.1c-2.7-1.1-5.4-1.3-8.1,0.1
		c-1.5,0.8-2.1,1.9-2,3.5c0.1,1.3,0.6,2.6,0.8,3.8c0.1,0.4,0.3,0.3,0.6,0.2c1-0.6,2.1-0.9,3.2-1.2c0.7-0.2,1.5-0.4,2.2-0.6
		c0.5-0.1,0.6-0.4,0.4-0.9C24,55.2,24.7,53.6,26.5,52.7z"/>
	<path class="st0" d="M20.2,50.4c0.8-0.3,1.7-0.6,2.6-0.9c-0.3-0.3-0.6-0.4-1-0.4c-0.8-0.1-1.5-0.3-2.3-0.3
		c-2.4-0.2-4.8,0.1-6.9,1.4c-1.8,1.1-2.5,2.7-2.4,4.7c0,0.4,0.2,0.6,0.6,0.4c0.9-0.5,1.9-0.8,3-1c0.9-0.1,1.7-0.3,2.6-0.4
		c0.3-0.1,0.6-0.2,0.7-0.5C17.4,51.7,18.7,50.9,20.2,50.4z"/>
	<path class="st0" d="M21.7,48.1c-0.4-0.8-1-1.5-1.6-2.1c-4.5-4.4-7.5-9.7-7.6-16c0-2,0.6-5.4,1.1-7.3c0.4-1.4,0.8-2,0.5-3.8
		c-4.1,5.6-7.7,11.5-5,18C11.3,42.5,16.1,46.1,21.7,48.1z"/>
	<path class="st0" d="M22.8,45.8c-2.4-2.8-3.9-6.4-3.9-10.3c0-4.4,2-7.5,4.8-10.4c0,0,0.8-0.8,1.3-1.1l0.9-0.7
		c1.5-1.6,2.5-4.4,2.5-6.8c0-3.4-2.1-6.4-5.1-7.6c0,0-3.7,5.9-5.2,8.5c-1.2,2-2,3.9-2.6,5.9c-1.6,5.3-1.1,10.7,1.8,16.1
		C18.8,41.9,20.6,44,22.8,45.8z"/>
	<path class="st0" d="M50.7,52.1c-2.7-1.4-5.4-1.2-8.1-0.1c-0.1,0-0.1,0.1-0.2,0.1c0.4,0.2,0.8,0.4,1.2,0.6c1.8,0.9,2.4,2.4,1.8,4.3
		c-0.2,0.5-0.1,0.7,0.4,0.9c0.7,0.2,1.5,0.4,2.2,0.6c1.1,0.3,2.2,0.6,3.2,1.2c0.3,0.2,0.5,0.2,0.6-0.2c0.3-1.3,0.7-2.5,0.8-3.8
		C52.8,54,52.2,52.9,50.7,52.1z"/>
	<path class="st0" d="M57.4,50.1c-2.1-1.3-4.5-1.6-6.9-1.4c-0.8,0.1-1.5,0.2-2.3,0.3c-0.3,0.1-0.6,0.2-1,0.4
		c0.9,0.3,1.8,0.6,2.6,0.9c1.5,0.5,2.8,1.3,3.3,2.9c0.1,0.3,0.3,0.5,0.7,0.5c0.9,0.1,1.7,0.3,2.6,0.4c1,0.2,2,0.5,3,1
		c0.4,0.2,0.6,0.1,0.6-0.4C60,52.8,59.2,51.2,57.4,50.1z"/>
	<path class="st0" d="M39.3,52.1c-1,0.2-2,0.5-3,0.5c-0.4,0-0.9,0-1.3,0s-0.9,0-1.3,0c-1-0.1-2-0.4-3-0.5c-1.8,0.2-3.3,1-4.4,2.4
		c-0.4,0.4-0.3,1,0,1.5c0.4,0.6,1,1,1.7,1.3c2.9,1.3,5.3,3.1,6.6,6.1c0.1,0.3,0.3,0.4,0.4,0.4c0.1,0,0.3-0.2,0.4-0.4
		c1.3-3,3.7-4.9,6.6-6.1c0.7-0.3,1.3-0.7,1.7-1.3c0.3-0.5,0.4-1,0-1.5C42.6,53.2,41.1,52.3,39.3,52.1z"/>
	<path class="st0" d="M56,18.9c-0.3,1.9,0.1,2.4,0.5,3.8c0.5,1.9,1.1,5.3,1.1,7.3c-0.1,6.3-3,11.6-7.6,16c-0.6,0.6-1.2,1.2-1.6,2.1
		c5.6-2,10.4-5.6,12.7-11.2C63.6,30.4,60,24.5,56,18.9z"/>
	<path class="st0" d="M41.6,16.3c0,2.4,0.9,5.3,2.5,6.8l0.9,0.7c0.4,0.4,1.3,1.1,1.3,1.1c2.8,2.9,4.8,6.1,4.8,10.4
		c0,4-1.5,7.6-3.9,10.3c2.2-1.7,4-3.9,5.4-6.6c2.9-5.4,3.4-10.8,1.8-16.1c-0.6-2-1.5-4-2.6-5.9c-1.5-2.6-5.2-8.5-5.2-8.5
		C43.7,9.9,41.6,12.8,41.6,16.3z"/>
	<path class="st0" d="M24.9,7.6c0,0,0.1,0.1,0.2,0.1c3,1.8,5.6,5.8,5.2,9.9c-0.3,3.7-1.8,5.9-3.4,7.4l0,0l0,0
		c-0.5,0.4-1,0.8-1.5,1.3l0,0l0,0c-0.8,0.8-1.4,1.6-2,2.6c-1.3,2.1-2,4.5-2,7.2c0,6,3.8,11,9.1,12.9c0,0,0.1,0,0.1,0
		c0.2,0.1,0.5,0.2,0.7,0.2c0,0,0.1,0,0.1,0c0.4,0.1,0.8,0.2,1.2,0.3h0c0.2,0,0.4,0,0.5,0h0c0.1,0,0.2,0,0.2,0c0.5,0.1,1,0.1,1.6,0.1
		c0.5,0,1.1,0,1.6-0.1c0.1,0,0.2,0,0.2,0h0c0.2,0,0.4,0,0.5,0h0c0.4-0.1,0.8-0.2,1.2-0.3c0,0,0.1,0,0.1,0c0.3-0.1,0.5-0.2,0.7-0.2
		c0,0,0.1,0,0.1,0c5.3-1.9,9.1-7,9.1-12.9c0-2.6-0.7-5.1-2-7.2c-0.6-0.9-1.2-1.8-2-2.6l0,0l0,0c-0.5-0.5-1-0.9-1.5-1.3l0,0l0,0
		c-1.6-1.6-3-3.7-3.4-7.4C39.4,13.5,42,9.5,45,7.7c0.1,0,0.1-0.1,0.2-0.1c0.1,0,0.1-0.1,0.2-0.1l0-0.1l0-0.1c0-0.7-4.6-1.3-10.3-1.3
		S24.7,6.6,24.7,7.4l0,0.1l0,0.1C24.8,7.5,24.8,7.6,24.9,7.6z"/>
	<path class="st0" d="M35,69.1v-0.9c-9.2,0-17.5-3.7-23.5-9.7c-6-6-9.7-14.3-9.7-23.5c0-9.2,3.7-17.5,9.7-23.5
		c6-6,14.3-9.7,23.5-9.7c9.2,0,17.5,3.7,23.5,9.7c6,6,9.7,14.3,9.7,23.5c0,9.2-3.7,17.5-9.7,23.5c-6,6-14.3,9.7-23.5,9.7V69.1V70
		c9.7,0,18.4-3.9,24.7-10.2C66.1,53.4,70,44.6,70,35c0-9.7-3.9-18.4-10.2-24.7C53.4,3.9,44.7,0,35,0c-9.7,0-18.4,3.9-24.7,10.2
		C4,16.6,0,25.3,0,35C0,44.6,4,53.4,10.3,59.7C16.6,66,25.4,70,35,70V69.1z"/>
</g>
</svg>
