<?xml version="1.0" encoding="utf-8"?>
<!-- Generator: Adobe Illustrator 21.0.0, SVG Export Plug-In . SVG Version: 6.00 Build 0)  -->
<svg version="1.1" id="Layer_1" xmlns="http://www.w3.org/2000/svg" xmlns:xlink="http://www.w3.org/1999/xlink" x="0px" y="0px"
	 viewBox="0 0 80 103.1" style="enable-background:new 0 0 80 103.1;" xml:space="preserve">
<style type="text/css">
	.st0{fill:#9E1D29;}
</style>
<g>
	<g>
		<path class="st0" d="M10.4,96.9v4.3c0,1.1-0.6,1.7-1.7,1.7h-7c-1.1,0-1.7-0.6-1.7-1.7v-9.6C0,90.5,0.6,90,1.7,90h8.7v2.6H2.6v7.8
			h5.3v-2.6H4.5l0.9-2.6h3.4C9.8,95.2,10.4,95.8,10.4,96.9z"/>
		<path class="st0" d="M33.1,92.6V103h-2.6V92.6H27V103h-2.6V91.7c0-1.1,0.6-1.7,1.7-1.7h11.3c1.1,0,1.7,0.6,1.7,1.7V103h-2.6V92.6
			H33.1z"/>
		<path class="st0" d="M56.5,92.6h-7v2.6h6.1c1.1,0,1.7,0.6,1.7,1.7v4.3c0,1.1-0.6,1.7-1.7,1.7h-8.7v-2.6h7.8v-2.6h-6.1
			c-1.1,0-1.7-0.6-1.7-1.7v-4.3c0-1.1,0.6-1.7,1.7-1.7h8.7L56.5,92.6z"/>
		<path class="st0" d="M61.7,97.9v2.6h6.1v2.6h-7c-1.1,0-1.7-0.6-1.7-1.7v-9.6c0-1.1,0.6-1.7,1.7-1.7h7v2.6h-6.1v2.6H67L66,98h-4.3
			V97.9z"/>
		<path class="st0" d="M69.6,103V91.7c0-1.1,0.6-1.7,1.7-1.7h7c1.1,0,1.7,0.6,1.7,1.7V103h-2.6V92.6h-5.3V103H69.6z"/>
		<path class="st0" d="M20.8,90h-7c-1.1,0-1.7,0.6-1.7,1.7v9.6c0,1.1,0.6,1.7,1.7,1.7h7c1.1,0,1.7-0.6,1.7-1.7v-9.6
			C22.5,90.5,22,90,20.8,90z M20,100.5h-5.3v-7.8H20V100.5z"/>
		<polygon class="st0" points="23.6,83.9 22.2,82.5 18.8,86 20.1,86 		"/>
		<polygon class="st0" points="17.4,87.7 19.5,88.9 20.8,88.9 18.8,86.8 17.4,85.4 16,86.8 14,88.9 15.3,88.9 		"/>
	</g>
	<path class="st0" d="M30.3,60.2c0.5-0.2,0.9-0.5,1.4-0.7c-0.1-0.1-0.1-0.1-0.2-0.1c-3.1-1.3-6.2-1.5-9.3,0.1
		c-1.7,0.9-2.4,2.2-2.3,4c0.1,1.5,0.7,3,0.9,4.3c0.1,0.5,0.3,0.3,0.7,0.2c1.1-0.7,2.4-1,3.7-1.4c0.8-0.2,1.7-0.5,2.5-0.7
		c0.6-0.1,0.7-0.5,0.5-1C27.5,62.9,28.3,61.2,30.3,60.2z"/>
	<path class="st0" d="M23.1,57.5c0.9-0.3,1.9-0.7,3-1c-0.3-0.3-0.7-0.5-1.1-0.5c-0.9-0.1-1.7-0.3-2.6-0.3c-2.7-0.2-5.5,0.1-7.9,1.6
		c-2.1,1.3-2.9,3.1-2.7,5.4c0,0.5,0.2,0.7,0.7,0.5c1-0.6,2.2-0.9,3.4-1.1c1-0.1,1.9-0.3,3-0.5c0.3-0.1,0.7-0.2,0.8-0.6
		C19.9,58.9,21.3,58,23.1,57.5z"/>
	<path class="st0" d="M24.8,54.9c-0.5-0.9-1.1-1.7-1.8-2.4c-5.2-5-8.6-11.1-8.7-18.3c0-2.3,0.7-6.2,1.3-8.4c0.5-1.6,0.9-2.3,0.6-4.3
		c-4.7,6.4-8.8,13.2-5.7,20.6C12.9,48.4,18.4,52.6,24.8,54.9z"/>
	<path class="st0" d="M26.1,52.2c-2.7-3.2-4.5-7.3-4.5-11.8c0-5,2.3-8.6,5.5-11.9c0,0,0.9-0.9,1.5-1.3l1-0.8c1.7-1.8,2.9-5,2.9-7.8
		c0-3.9-2.4-7.3-5.8-8.7c0,0-4.2,6.8-6,9.7c-1.4,2.3-2.3,4.5-3,6.8c-1.8,6.1-1.3,12.2,2.1,18.4C21.5,47.7,23.6,50.2,26.1,52.2z"/>
	<path class="st0" d="M57.9,59.5c-3.1-1.6-6.2-1.4-9.3-0.1c-0.1,0-0.1,0.1-0.2,0.1c0.5,0.2,0.9,0.5,1.4,0.7c2.1,1,2.7,2.7,2.1,4.9
		c-0.2,0.6-0.1,0.8,0.5,1c0.8,0.2,1.7,0.5,2.5,0.7c1.3,0.3,2.5,0.7,3.7,1.4c0.3,0.2,0.6,0.2,0.7-0.2c0.3-1.5,0.8-2.9,0.9-4.3
		C60.4,61.7,59.6,60.4,57.9,59.5z"/>
	<path class="st0" d="M65.7,57.2c-2.4-1.5-5.2-1.8-7.9-1.6c-0.9,0.1-1.7,0.2-2.6,0.3c-0.3,0.1-0.7,0.2-1.1,0.5c1,0.3,2.1,0.7,3,1
		c1.7,0.6,3.2,1.5,3.8,3.3c0.1,0.3,0.3,0.6,0.8,0.6c1,0.1,1.9,0.3,3,0.5c1.1,0.2,2.3,0.6,3.4,1.1c0.5,0.2,0.7,0.1,0.7-0.5
		C68.6,60.3,67.8,58.5,65.7,57.2z"/>
	<path class="st0" d="M45,59.5c-1.1,0.2-2.3,0.6-3.4,0.6c-0.5,0-1,0-1.5,0c-0.5,0-1,0-1.5,0c-1.1-0.1-2.3-0.5-3.4-0.6
		c-2.1,0.2-3.8,1.1-5,2.7c-0.5,0.5-0.3,1.1,0,1.7c0.5,0.7,1.1,1.1,1.9,1.5c3.3,1.5,6.1,3.5,7.6,7c0.1,0.3,0.3,0.5,0.5,0.5
		c0.1,0,0.3-0.2,0.5-0.5c1.5-3.4,4.2-5.6,7.6-7c0.8-0.3,1.5-0.8,1.9-1.5c0.3-0.6,0.5-1.1,0-1.7C48.8,60.7,47,59.7,45,59.5z"/>
	<path class="st0" d="M64,21.5c-0.3,2.2,0.1,2.7,0.6,4.3c0.6,2.2,1.3,6.1,1.3,8.4c-0.1,7.2-3.4,13.3-8.7,18.3
		c-0.7,0.7-1.4,1.4-1.8,2.4c6.4-2.3,11.9-6.4,14.5-12.8C72.8,34.6,68.7,27.8,64,21.5z"/>
	<path class="st0" d="M47.5,18.4c0,2.7,1,6.1,2.9,7.8l1,0.8c0.5,0.5,1.5,1.3,1.5,1.3c3.2,3.3,5.5,7,5.5,11.9c0,4.6-1.7,8.7-4.5,11.8
		c2.5-1.9,4.6-4.5,6.2-7.6C63.4,38.2,64,32,62.1,26c-0.7-2.3-1.7-4.6-3-6.8c-1.7-3-6-9.7-6-9.7C49.9,11.2,47.5,14.5,47.5,18.4z"/>
	<path class="st0" d="M28.4,8.5c0,0,0.1,0.1,0.2,0.1c3.4,2.1,6.4,6.6,6,11.3c-0.3,4.2-2.1,6.8-3.9,8.5l0,0l0,0
		c-0.6,0.5-1.1,0.9-1.7,1.5l0,0l0,0c-0.9,0.9-1.6,1.8-2.3,3c-1.5,2.4-2.3,5.2-2.3,8.2c0,6.9,4.3,12.6,10.4,14.8h0.1
		c0.2,0.1,0.6,0.2,0.8,0.2h0.1c0.5,0.1,0.9,0.2,1.4,0.3l0,0c0.2,0,0.5,0,0.6,0l0,0c0.1,0,0.2,0,0.2,0c0.6,0.1,1.1,0.1,1.8,0.1
		c0.6,0,1.3,0,1.8-0.1c0.1,0,0.2,0,0.2,0l0,0c0.2,0,0.5,0,0.6,0l0,0c0.5-0.1,0.9-0.2,1.4-0.3h0.1c0.3-0.1,0.6-0.2,0.8-0.2h0.1
		c6.1-2.2,10.4-8,10.4-14.8c0-3-0.8-5.8-2.3-8.2c-0.7-1-1.4-2.1-2.3-3l0,0l0,0c-0.6-0.6-1.1-1-1.7-1.5l0,0l0,0
		c-1.8-1.8-3.4-4.2-3.9-8.5c-0.5-4.7,2.5-9.3,6-11.3c0.1,0,0.1-0.1,0.2-0.1c0.1,0,0.1-0.1,0.2-0.1V8.2V8.1c0-0.8-5.3-1.5-11.8-1.5
		S27.9,7.3,27.9,8.1v0.1v0.1C28.3,8.5,28.4,8.5,28.4,8.5z"/>
	<path class="st0" d="M40.1,78.9v-1c-10.5,0-20-4.2-26.9-11.1S2.1,50.4,2.1,39.8c0-10.5,4.2-20,11.1-26.9S29.5,1.8,40.1,1.8
		s20,4.2,26.9,11.1c6.9,6.9,11.1,16.4,11.1,26.9c0,10.5-4.2,20-11.1,26.9c-6.9,6.9-16.4,11.1-26.9,11.1V78.9v1
		c11.1,0,21.1-4.5,28.3-11.7C75.5,61,80,50.9,80,39.9c0-11.1-4.5-21.1-11.7-28.3C61.1,4.5,51,0,40.1,0C29,0,19,4.5,11.8,11.7
		S0.1,29,0.1,39.9C0.1,51,4.6,61,11.8,68.2c7.2,7.2,17.3,11.7,28.3,11.7V78.9z"/>
</g>
</svg>
