<?xml version="1.0" encoding="utf-8"?>
<!-- Generator: Adobe Illustrator 21.0.0, SVG Export Plug-In . SVG Version: 6.00 Build 0)  -->
<svg version="1.1" id="Layer_1" xmlns="http://www.w3.org/2000/svg" xmlns:xlink="http://www.w3.org/1999/xlink" x="0px" y="0px"
	 viewBox="0 0 7.8 14.1" style="enable-background:new 0 0 7.8 14.1;" xml:space="preserve">
<style type="text/css">
	.st0{fill:#FFFFFF;}
</style>
<path class="st0" d="M7.7,12.2c-0.5-0.8-1-1.6-1.4-2.5C6.2,9.7,6.1,9.6,6,9.5C5.8,9.4,5.6,9.4,5.4,9.4c-0.4,0-0.7,0-1.1,0.1L4.2,9.4
	C4.1,9.3,4,9.1,4,9C3.6,8.1,3.3,7.3,3,6.4C2.9,5.9,2.8,5.5,2.7,5.1l0.1-0.1c0.3-0.2,0.6-0.4,0.8-0.6c0.1-0.1,0.2-0.2,0.3-0.3
	c0.2-0.2,0.3-0.4,0.2-0.7c0-0.2,0-0.4-0.1-0.6C4,2.1,3.9,1.4,3.8,0.7c0-0.2-0.1-0.4-0.3-0.5C3.3,0,3,0,2.8,0C2.4,0.1,2,0.2,1.7,0.3
	C1.3,0.4,1,0.5,0.7,0.7C0.6,0.8,0.4,0.9,0.4,1C0.2,1.5,0.1,2,0,2.5C0,3.3,0,4.1,0.2,4.9c0.4,2,1,3.9,1.9,5.7
	c0.4,0.8,0.8,1.5,1.3,2.2c0.4,0.5,0.8,0.9,1.3,1.2c0.2,0.1,0.4,0.2,0.6,0.1c0.1,0,0.3,0,0.4-0.1c0.6-0.2,1.1-0.4,1.6-0.7
	c0.1-0.1,0.2-0.1,0.3-0.2C7.8,12.8,7.9,12.5,7.7,12.2z M7.2,12.7l-0.2,0.2c-0.5,0.3-1.1,0.5-1.7,0.7l-0.2,0c-0.1,0-0.2,0-0.3-0.1
	c-0.4-0.3-0.8-0.6-1.1-1c-0.5-0.7-1-1.4-1.3-2.2C1.7,8.6,1.1,6.7,0.7,4.8C0.6,4,0.5,3.2,0.6,2.5c0-0.4,0.1-0.8,0.3-1.1l0.1-0.1
	C1.1,1.1,1.2,1,1.3,1c0.5-0.2,1-0.3,1.6-0.4c0.1,0,0.2,0,0.3,0l0.1,0.2c0.1,0.9,0.2,1.7,0.3,2.6c0,0.2-0.1,0.4-0.2,0.5
	C3,4.1,2.6,4.4,2.2,4.7L2.1,4.8c0,0.4,0.1,0.9,0.3,1.3C2.7,7.2,3,8.3,3.5,9.3C3.6,9.5,3.8,9.7,3.9,10L4,10c0.5,0,0.9-0.1,1.4-0.1
	c0.1,0,0.3,0,0.4,0.1l0.1,0.1c0.5,0.8,0.9,1.6,1.4,2.4L7.2,12.7z"/>
</svg>
