<?xml version="1.0" encoding="utf-8"?>
<!-- Generator: Adobe Illustrator 21.0.0, SVG Export Plug-In . SVG Version: 6.00 Build 0)  -->
<svg version="1.1" id="Layer_1" xmlns="http://www.w3.org/2000/svg" xmlns:xlink="http://www.w3.org/1999/xlink" x="0px" y="0px"
	 viewBox="0 0 23.3 30" style="enable-background:new 0 0 23.3 30;" xml:space="preserve">
<g>
	<path d="M11.7,14c3.9,0,7-3.1,7-7c0-3.9-3.1-7-7-7s-7,3.1-7,7C4.7,10.9,7.8,14,11.7,14z M11.7,1.5c3,0,5.5,2.5,5.5,5.5
		c0,3-2.5,5.5-5.5,5.5S6.2,10,6.2,7C6.2,4,8.6,1.5,11.7,1.5z"/>
	<polygon points="19.9,21.7 19.9,21.7 19.9,21.7 	"/>
	<path d="M19.9,21.7c-2.1-2.1-5-3.4-8.3-3.4C5.2,18.3,0,23.5,0,29.9V30h1.5l0-0.1c0-2.8,1.1-5.3,3-7.2c1.8-1.8,4.4-3,7.2-3
		c2.8,0,5.3,1.1,7.2,3l0,0c1.8,1.8,3,4.4,3,7.2V30h1.5v-0.1C23.3,26.7,22,23.8,19.9,21.7z"/>
</g>
</svg>
