<?xml version="1.0" encoding="utf-8"?>
<!-- Generator: Adobe Illustrator 21.0.0, SVG Export Plug-In . SVG Version: 6.00 Build 0)  -->
<svg version="1.1" id="Layer_1" xmlns="http://www.w3.org/2000/svg" xmlns:xlink="http://www.w3.org/1999/xlink" x="0px" y="0px"
	 viewBox="0 0 28 29.7" style="enable-background:new 0 0 28 29.7;" xml:space="preserve">
<path d="M18,18.7c2.2-2,3.5-4.8,3.5-8C21.5,4.8,16.7,0,10.8,0C4.8,0,0,4.8,0,10.8s4.8,10.8,10.8,10.8c2.5,0,4.9-0.9,6.7-2.3
	l-0.6,0.6l10,10l1.1-1.1L18,18.7z M10.8,20c-5.1,0-9.2-4.1-9.2-9.2s4.1-9.2,9.2-9.2c5.1,0,9.2,4.1,9.2,9.2S15.8,20,10.8,20z"/>
</svg>
