<?xml version="1.0" encoding="utf-8"?>
<!-- Generator: Adobe Illustrator 21.0.0, SVG Export Plug-In . SVG Version: 6.00 Build 0)  -->
<svg version="1.1" id="Layer_1" xmlns="http://www.w3.org/2000/svg" xmlns:xlink="http://www.w3.org/1999/xlink" x="0px" y="0px"
	 viewBox="0 0 34.8 30" style="enable-background:new 0 0 34.8 30;" xml:space="preserve">
<style type="text/css">
	.st0{fill:#FFFFFF;}
</style>
<g>
	<polygon class="st0" points="3.2,18.2 3.2,18.2 3.2,18.2 	"/>
	<path class="st0" d="M33.9,4l-0.3,0c-0.3,0-0.6,0.1-0.8,0.1c0,0,0,0,0-0.1c0.5-0.5,0.9-1.2,1-2.2l0.2-1.1l-1.1,0.3
		c-1.1,0.4-2.2,0.6-3.2,1c-0.2,0.1-0.3,0.1-0.4,0.1c-0.2,0-0.3-0.1-0.6-0.2c-1.5-1.3-3.2-2-4.9-2c-1.1,0-2.3,0.3-3.4,0.8
		c-1.5,0.7-2.7,1.7-3.4,3C16.4,5.1,16,6.6,16,8.2l0,0.2v0c0,0.2,0,0.3,0,0.4l0,0.1l-0.2,0c-0.2,0-0.4,0-0.7-0.1
		C10.6,8,6.7,6.2,3.6,2.8C3.5,2.7,3.3,2.5,3.1,2.3C3,2.2,2.9,2.1,2.8,2C2.6,1.9,2.4,1.8,2.1,1.8l-0.3,0C1.6,1.9,1.3,2,1.2,2.2
		C0.9,2.5,0.9,2.8,0.8,3c0,0.2-0.1,0.4-0.1,0.5C0.5,4.3,0.4,5,0.4,5.8c0,1.9,0.7,3.5,1.8,5c-0.3,0-0.5-0.1-0.8-0.1
		c-0.2,0-0.5,0-0.8,0.2c-0.1,0.1-0.2,0.3-0.3,0.4c-0.1,0.1-0.1,0.3-0.1,0.4c0,0.5,0.2,0.9,0.4,1.6c0.4,1.3,1.1,2.3,2,3.2
		c0.4,0.4,0.9,0.7,1.3,1c-0.1,0-0.2,0-0.3,0.1c-0.2,0.1-0.5,0.3-0.6,0.5c-0.1,0.2-0.2,0.4-0.2,0.6c0,0.5,0.2,0.9,0.4,1.2
		c0.2,0.3,0.4,0.5,0.5,0.7C4.5,21.3,5,21.6,5.3,22c0.6,0.6,1.4,1,2.1,1.2c0.3,0.1,0.6,0.2,0.9,0.3c-2.4,1.5-5,2.1-7.7,2.4L0,26
		l0,0.6c0,0.2,0.1,0.5,0.2,0.7c0.2,0.3,0.5,0.5,0.7,0.6C1.1,28,1.3,28,1.3,28c3.1,1.2,6.3,2,9.6,2c1.1,0,2.2-0.1,3.3-0.3
		c4.7-0.8,9-3.4,12.2-7c3.1-3.6,5.1-8.2,5.2-13c0-0.6,0.1-1.1,0.3-1.5c0.2-0.4,0.5-0.7,1-1.1c0.5-0.3,0.9-0.7,1.2-1.1
		c0.3-0.4,0.4-0.8,0.5-1.3l0.3-0.8L33.9,4z M32.1,6.1c-0.7,0.4-1.2,1-1.5,1.6c-0.3,0.6-0.4,1.3-0.4,2.1c0,4.4-1.9,8.7-4.8,12.1
		c-3,3.4-7,5.8-11.4,6.5c-1.1,0.2-2.1,0.3-3.1,0.3c-2.9,0-5.6-0.6-8.4-1.6c2.7-0.5,5.3-1.3,7.8-3.2l1-0.8l-1.2-0.4
		c-0.8-0.3-1.6-0.5-2.3-0.7c-0.7-0.2-1.2-0.5-1.6-0.9c-0.4-0.4-0.8-0.7-1-1c-0.2-0.3-0.4-0.5-0.6-0.8c-0.1-0.1-0.2-0.2-0.2-0.3
		c0.2,0,0.4,0,0.7,0c0.2,0,0.3,0,0.5-0.1l0,0c0.2-0.1,0.3-0.1,0.7-0.3L8,18.1l-1.5-0.7c-1.1-0.5-2.1-1.1-2.8-1.8
		C2.9,14.8,2.3,14,2,12.9c-0.1-0.4-0.2-0.7-0.3-0.9c0.2,0,0.5,0.1,0.8,0.1c0.1,0,0.3,0.1,0.5,0.1c0.3,0,0.8-0.1,1.1-0.5l0.5-0.5
		l-0.5-0.5C2.6,9.3,1.8,7.7,1.8,5.8c0-0.6,0.1-1.2,0.3-1.9c0.1-0.3,0.1-0.5,0.1-0.6l0,0c0.1,0.1,0.2,0.3,0.3,0.4
		c3.3,3.6,7.6,5.5,12.3,6.4c0.3,0.1,0.6,0.1,1,0.1c0.2,0,0.4,0,0.6-0.1c0.3-0.1,0.6-0.4,0.8-0.7c0.2-0.3,0.2-0.7,0.2-1.1V8.3v0
		l0-0.1c0-1.4,0.3-2.6,0.9-3.7c0.6-1,1.6-1.8,2.9-2.5c1-0.5,1.9-0.7,2.8-0.7c1.4,0,2.7,0.5,4,1.6c0.4,0.4,0.9,0.6,1.5,0.6
		c0.3,0,0.6-0.1,0.9-0.2l0,0c0.6-0.2,1.1-0.4,1.8-0.6C32.1,2.9,32,3,31.9,3.1C31.5,3.6,31,4,30.5,4.5l-0.8,0.8l1.1,0.3
		c0.2,0.1,0.5,0.1,0.7,0.1c0.5,0,0.9-0.1,1.2-0.2C32.6,5.7,32.5,5.8,32.1,6.1z"/>
</g>
</svg>
